<svg id="Layer_1" data-name="Layer 1" xmlns="http://www.w3.org/2000/svg" viewBox="0 0 330 110"><defs><style>.cls-1{fill:#ff8484;}.cls-2{fill:#fff;}</style></defs><rect class="cls-1" width="330" height="110"/><path class="cls-2" d="M83.61,39.06V36h19.13v3.11l-8.58.87H92Zm9.34,31v4H83.61V70.94L92,70.07ZM87.9,36H98c-.17,5.89-.17,11.92-.17,18v3c0,5.1,0,11.13.17,17.07H87.9c.18-5.89.18-11.92.18-16.76V53.93C88.08,47.92,88.08,41.89,87.9,36Zm26.33,26.74-.58,11.36H93V70.73h18.76l-4.41,3.32,2.28-11.36Z"/><path class="cls-2" d="M120.15,38.52V35.41h18.92v3.11l-8.63.87h-1.66Zm22.3,30.8c5.21,0,8.32-3.48,8.32-12.23V35.41h3.78V57.09c0,12.31-5.71,17.5-15.3,17.5-8.57,0-14.8-4.23-14.8-15.48V52.8c0-5.72,0-11.59-.17-17.39h10.08c-.17,5.69-.17,11.55-.17,17.39v4.46C134.19,66.15,137,69.32,142.45,69.32Zm9.23-30.26-6.17-.54V35.41h13.83v3.11l-6,.54Z"/><path class="cls-2" d="M166.69,70.88l6.18-.87h1.66l7.46.87V74h-15.3Zm3-32.94,3.34,1.64-6.29-.53V35.89h13.1l20.8,28.56v9.66h-4.91Zm1.9-2,3.74,3.16V74h-3.74Zm18.68,0h15.3V39l-5.88.87H198.1L190.3,39Zm6.64,0h3.73V74.11l-3.73-3.74Z"/><path class="cls-2" d="M208.63,71l6-.87h1l5.5.87v3.11H208.63Zm16.49-35.07h6l13,38.18h-9.91L224.35,43,226.52,40,215.44,74.09H212Zm-6.24,23.73h15.66l1.3,3.38H217.91Zm9.75,11.46,6.56-.87h3.88l7.44.87v3H228.63Z"/><circle class="cls-2" cx="52.5" cy="54.5" r="8.5"/><circle class="cls-2" cx="274.5" cy="54.5" r="8.5"/></svg>